<svg xmlns="http://www.w3.org/2000/svg" width="44.269" height="42.181" viewBox="0 0 44.269 42.181">
  <g id="Group_1699" data-name="Group 1699" transform="translate(3251.86 -10976.913)">
    <g id="Group_1697" data-name="Group 1697">
      <path id="Path_3965" data-name="Path 3965" d="M-3207.591,10994.876c0-9.905-9.929-17.963-22.134-17.963s-22.135,8.058-22.135,17.963c0,8.879,7.875,16.315,18.512,17.721.72.156,1.7.476,1.95,1.093a4.542,4.542,0,0,1,.071,2s-.259,1.562-.316,1.895c-.1.559-.445,2.188,1.918,1.193s12.746-7.506,17.39-12.852h0C-3209.128,11002.409-3207.591,10998.84-3207.591,10994.876Z" fill="#fff"/>
    </g>
    <g id="Group_1698" data-name="Group 1698">
      <path id="Path_3966" data-name="Path 3966" d="M-3214.955,11000.595h-6.218a.422.422,0,0,1-.423-.423v-.007h0v-9.643h0v-.01a.423.423,0,0,1,.423-.422h6.218a.424.424,0,0,1,.423.422v1.57a.423.423,0,0,1-.423.423h-4.226v1.63h4.226a.424.424,0,0,1,.423.422v1.57a.423.423,0,0,1-.423.423h-4.226v1.63h4.226a.424.424,0,0,1,.423.422v1.57A.422.422,0,0,1-3214.955,11000.595Z" fill="#06c755"/>
      <path id="Path_3967" data-name="Path 3967" d="M-3237.957,11000.595a.422.422,0,0,0,.422-.423v-1.57a.424.424,0,0,0-.422-.422h-4.227v-7.668a.424.424,0,0,0-.422-.422h-1.57a.423.423,0,0,0-.423.422v9.653h0v.007a.423.423,0,0,0,.423.423h6.219Z" fill="#06c755"/>
      <rect id="Rectangle_1072" data-name="Rectangle 1072" width="2.415" height="10.505" rx="0.423" transform="translate(-3236.206 10990.09)" fill="#06c755"/>
      <path id="Path_3968" data-name="Path 3968" d="M-3223.527,10990.09h-1.57a.423.423,0,0,0-.423.422v5.738l-4.419-5.969a.523.523,0,0,0-.034-.044l0,0-.026-.026-.008-.007-.023-.021-.011-.008-.022-.016-.013-.007-.024-.014-.013-.007-.025-.01-.013,0-.026-.009-.015,0-.025,0-.018,0-.023,0h-1.6a.423.423,0,0,0-.423.422v9.66a.422.422,0,0,0,.423.423h1.57a.422.422,0,0,0,.422-.423v-5.736l4.425,5.978a.424.424,0,0,0,.109.105l.005,0,.027.017.012.006.021.01.02.01.014,0,.029.009.006,0a.452.452,0,0,0,.11.015h1.562a.422.422,0,0,0,.422-.423v-9.66A.422.422,0,0,0-3223.527,10990.09Z" fill="#06c755"/>
    </g>
  </g>
</svg>
